<?xml version="1.0" encoding="utf-8"?>
<!-- Generator: Adobe Illustrator 15.0.2, SVG Export Plug-In . SVG Version: 6.00 Build 0)  -->
<!DOCTYPE svg PUBLIC "-//W3C//DTD SVG 1.1//EN" "http://www.w3.org/Graphics/SVG/1.1/DTD/svg11.dtd">
<svg version="1.1" id="Layer_1" xmlns="http://www.w3.org/2000/svg" xmlns:xlink="http://www.w3.org/1999/xlink" x="0px" y="0px"
	 width="120.31px" height="24.588px" viewBox="1201.19 245.495 120.31 24.588"
	 enable-background="new 1201.19 245.495 120.31 24.588" xml:space="preserve">
<path fill="#FFFFFF" d="M1231.967,269.66h-3.575V246.03h4.188c3.13,0,5.39,0.586,6.779,1.759c1.534,1.307,2.301,3.031,2.301,5.173
	c0,1.674-0.479,3.113-1.441,4.316c-0.961,1.204-2.229,1.974-3.805,2.311l7.329,10.07h-4.367"/>
<path fill="#FFFFFF" d="M1253.848,249.393v20.267h-3.575v-20.267h-5.435v-3.362h14.43v3.362H1253.848z"/>
<path fill="#FFFFFF" d="M1270.304,246.03v15.286c0,1.826-0.127,3.188-0.382,4.085c-0.255,1.021-0.688,1.883-1.299,2.586
	c-1.192,1.397-2.772,2.096-4.742,2.096c-1.489,0-2.884-0.39-4.18-1.172l1.745-3.063c0.867,0.583,1.679,0.874,2.435,0.874
	c1.062,0,1.797-0.402,2.204-1.208c0.429-0.805,0.645-2.211,0.645-4.218V246.03H1270.304z"/>
<path fill="#FFFFFF" d="M1304.521,246.03v23.629h-3.576V246.03H1304.521z"/>
<path fill="#FFFFFF" d="M1314.55,246.03v20.267h6.95v3.363h-10.526V246.03H1314.55z"/>
<polygon fill="#00B8D6" points="1285.185,245.495 1285.185,245.495 1273.43,269.636 1296.941,269.636 "/>
<polygon fill="#00B8D6" points="1212.948,245.495 1212.948,245.495 1201.19,269.636 1224.704,269.636 "/>
</svg>
